<svg width="586" height="316" viewBox="0 0 586 316" fill="none" xmlns="http://www.w3.org/2000/svg">
<path d="M104.053 251.365C104.053 251.365 94.0435 239.686 103.436 232.263C103.436 232.263 110.297 228.111 115.893 228.443C115.893 228.443 107.958 241.737 110.53 243.06C113.101 244.382 118.294 227.611 118.294 227.611C118.294 227.611 133.91 226.095 138.932 228.51C138.932 228.51 125.585 239.433 128.394 240.083C131.203 240.732 145.624 230.012 145.624 230.012C145.624 230.012 160.156 232.486 159.38 241.352C158.604 250.218 153.599 252.954 151.398 252.716C149.197 252.478 136.323 247.568 136.043 249.372C135.764 251.176 143.511 257.066 148.939 257.342C148.939 257.342 138.691 268.641 131.894 265.382C125.097 262.123 124.503 256.951 120.257 255.011C116.01 253.072 112.39 253.078 114.141 255.056C115.893 257.033 123.578 258.955 126.005 263.249C128.432 267.542 130.61 270.437 123.563 269.379C116.516 268.321 105.067 263.163 104.564 257.26L104.053 251.365Z" fill="#4E92F9"/>
<path d="M152.239 241.599C152.239 241.599 112.772 240.077 104.045 251.364C104.045 251.364 102.117 257.139 96.1864 262.396L95.2607 264.915C95.2607 264.915 102.102 257.706 104.547 257.274C104.556 257.268 100.73 243.283 152.239 241.599Z" fill="#3A49CD"/>
<path d="M96.1972 262.396C96.1972 262.396 87.7249 268.662 87.1372 279.855L88.6741 279.993C88.6741 279.993 91.3807 268.418 96.2707 263.892C101.161 259.366 96.1972 262.396 96.1972 262.396Z" fill="#3A49CD"/>
<path d="M69.056 236.68C69.056 236.68 84.9779 227.761 77.5459 215.659C77.5459 215.659 71.6009 208.227 65.2327 206.317C65.2327 206.317 68.6299 224.364 65.2327 224.79C61.8356 225.216 62.8818 204.407 62.8818 204.407C62.8818 204.407 46.1076 196.337 39.5279 196.975C39.5279 196.975 49.9309 214.607 46.5337 214.172C43.1366 213.738 31.4582 195.914 31.4582 195.914C31.4582 195.914 14.2608 192.729 11.5014 202.92C8.74196 213.112 13.2 218.201 15.7478 218.845C18.2957 219.489 34.6437 219.268 34.2205 221.393C33.7974 223.518 22.7596 226.912 16.5883 225.002C16.5883 225.002 23.3826 241.776 32.2987 240.926C41.2147 240.077 43.977 234.555 49.4989 234.132C55.0207 233.709 59.0526 235.193 56.2932 236.68C53.5337 238.167 44.1886 237.165 39.7306 240.956C35.2726 244.747 31.6639 247.083 39.9422 248.782C48.2205 250.48 63.0845 249.419 66.0585 243.048L69.056 236.68Z" fill="#4E92F9"/>
<path d="M19.3706 206.105C19.3706 206.105 63.9596 220.543 69.0553 236.668C69.0553 236.668 68.8408 243.885 73.2988 252.167V255.352C73.2988 255.352 68.6292 244.523 66.0814 243.036C66.0814 243.048 76.0612 229.036 19.3706 206.105Z" fill="#93B3F4"/>
<path d="M73.2986 252.178C73.2986 252.178 80.1752 262.62 76.255 275.329L74.4917 274.853C74.4917 274.853 76.2109 260.856 72.6139 253.815C69.0169 246.774 73.2986 252.178 73.2986 252.178Z" fill="#93B3F4"/>
<path d="M94.3868 224.381C94.3868 224.381 73.3957 212.626 83.1933 196.672C83.1933 196.672 91.0279 186.877 99.4267 184.359C99.4267 184.359 94.9481 208.148 99.4267 208.706C103.905 209.264 102.504 181.84 102.504 181.84C102.504 181.84 124.614 171.202 133.289 172.043C133.289 172.043 119.577 195.258 124.053 194.715C128.529 194.171 143.925 170.644 143.925 170.644C143.925 170.644 166.597 166.444 170.235 179.88C173.873 193.316 167.996 200.031 164.651 200.871C161.307 201.712 139.743 201.43 140.301 204.227C140.86 207.025 155.415 211.507 163.517 208.988C163.517 208.988 154.56 231.096 142.805 229.976C131.05 228.857 127.412 221.58 120.136 221.022C112.86 220.464 107.541 222.421 111.182 224.381C114.823 226.341 127.133 225.022 133.01 230.017C138.888 235.013 143.645 238.093 132.716 240.332C121.787 242.572 102.21 241.173 98.2924 232.777L94.3868 224.381Z" fill="#4E92F9"/>
<path d="M159.879 184.077C159.879 184.077 101.105 203.111 94.3873 224.382C94.3873 224.382 94.6811 233.897 88.8037 244.811V249.011C88.8037 249.011 94.975 234.738 98.3222 232.777C98.3075 232.777 85.1509 214.305 159.879 184.077Z" fill="#3A49CD"/>
<path d="M88.7884 244.811C88.7884 244.811 79.7254 258.576 84.8946 275.33L87.2249 274.704C87.2249 274.704 84.9622 256.249 89.7023 246.968C94.4424 237.688 88.7884 244.811 88.7884 244.811Z" fill="#3A49CD"/>
<path d="M93.6823 311.664C99.0819 311.664 104.429 310.6 109.417 308.534C114.406 306.467 118.938 303.439 122.756 299.62C126.574 295.802 129.603 291.269 131.669 286.281C133.735 281.292 134.798 275.945 134.798 270.545H52.564C52.5636 275.945 53.6269 281.292 55.6931 286.281C57.7594 291.27 60.7881 295.803 64.6064 299.621C68.4247 303.44 72.9577 306.468 77.9466 308.535C82.9355 310.601 88.2825 311.664 93.6823 311.664Z" fill="#EFAB18"/>
<path d="M103.797 311.349C98.0119 312.069 92.1398 311.552 86.5698 309.83C80.9998 308.109 75.8592 305.224 71.4886 301.366C67.1181 297.508 63.6174 292.765 61.2185 287.451C58.8197 282.138 57.5775 276.375 57.5742 270.545H67.7892C67.7894 280.566 71.4483 290.242 78.0786 297.755C84.7089 305.269 93.8544 310.103 103.797 311.349Z" fill="#FFCF69"/>
<path d="M135.367 313.756H51.9932C51.9939 312.411 52.529 311.121 53.4807 310.17C54.4324 309.218 55.7228 308.684 57.0683 308.684H130.286C131.632 308.684 132.922 309.218 133.874 310.17C134.826 311.121 135.361 312.411 135.361 313.756H135.367Z" fill="#EFAB18"/>
<path d="M135.735 270.545H51.2119V271.806H135.735V270.545Z" fill="#EFAB18"/>
<path d="M500.415 299.838C500.415 299.838 501.267 313.583 503.923 313.78C504.279 313.806 517.412 313.806 517.412 313.806L534.163 313.706C534.163 313.706 534.054 309.668 529.167 308.813C524.28 307.958 516.063 304.517 513.095 298.04C509.971 291.225 500.415 299.838 500.415 299.838Z" fill="#060632"/>
<path d="M491.465 137.293C491.465 137.293 499.379 141.792 501.595 141.792C503.811 141.792 512.506 140.111 514.931 141.348C517.355 142.586 521.743 147.573 522.571 149.201C524.041 152.139 516.612 150.835 513.094 148.34C512.842 148.16 512.554 148.035 512.251 147.973C511.947 147.91 511.634 147.912 511.331 147.978C509.509 148.375 505.724 149.062 503.896 148.387C501.439 147.479 488.497 146.468 488.497 146.468L491.465 137.293Z" fill="#FFF0F0"/>
<path d="M431.252 76.0001C431.252 76.0001 439.454 134.313 453.04 139.535C459.743 142.112 489.371 147.954 498.134 148.542C498.134 148.542 500.279 146.799 499.756 139.726C499.756 139.726 468.718 128.33 464.309 122.135C457.747 112.91 468.383 84.4548 460.148 75.7944C451.914 67.134 438.043 63.3931 431.252 76.0001Z" fill="#B78EC6"/>
<path d="M434.014 198.853C436.422 202.852 439.101 206.681 442.031 210.314C450.847 221.446 460.448 230.626 462.12 239.301C462.5 241.188 463.017 243.045 463.669 244.855C464.368 246.842 465.229 248.931 466.228 251.091C469.969 259.22 475.565 268.327 481.151 276.608C490.811 290.917 499.891 302.86 499.891 302.86L516.548 302.151C515.881 300.479 508.613 280.719 498.898 256.572C494.954 246.769 490.758 236.339 486.708 226.286L485.095 222.277C483.858 219.2 482.641 216.171 481.451 213.223C472.326 190.545 465.059 172.49 465.059 172.49C465.059 172.49 428.587 158.678 424.799 167.626C421.678 175.014 424.22 182.255 434.014 198.853Z" fill="#003E98"/>
<path d="M461.847 260.575C461.847 260.575 450.26 268.018 451.385 270.437C451.535 270.757 457.935 282.224 457.935 282.224L466.193 296.815C466.193 296.815 469.667 294.758 468.024 290.056C466.381 285.354 465.379 276.538 469.596 270.772C474.025 264.721 461.847 260.575 461.847 260.575Z" fill="#060632"/>
<path d="M467.512 273.649C467.512 273.649 460.274 267.263 458.989 262.579C458.989 262.579 488.823 226.835 495.294 218.821C495.588 218.454 495.517 218.051 495.124 217.608C490.24 212.1 435.956 200.901 428.862 189.863C426.747 186.621 425.197 183.044 424.277 179.284C422.67 172.548 423.942 167.896 423.942 167.896L478.153 166.327C478.153 166.327 523.288 194.433 528.405 213.596C533.521 232.76 467.512 273.649 467.512 273.649Z" fill="#164D9D"/>
<path d="M495.131 217.617C490.247 212.109 435.963 200.91 428.869 189.872C426.754 186.63 425.204 183.053 424.285 179.293V172.443L447.327 168.819C447.327 168.819 453.86 188.923 473.211 196.464C491.337 203.525 494.77 216.05 495.131 217.617Z" fill="#003E98"/>
<path d="M463.325 72.3267C452.355 75.1596 434.179 65.0005 434.179 65.0005C434.179 65.0005 441.232 60.2545 443.853 49.8338C443.984 49.3088 444.104 48.77 444.211 48.2175C445.361 47.9736 447.526 47.5122 449.845 47.0244L458.22 54.5269C458.22 54.5269 458.029 57.6449 456.983 62.9992C456.801 63.9337 456.59 64.9358 456.351 66.0055C459.043 67.6683 461.407 69.8108 463.325 72.3267Z" fill="#FFF0F0"/>
<path d="M422.566 117.785C424.138 138.912 422.072 171.044 423.853 176.609C425.39 181.411 442.914 178.558 449.911 176.953C452.497 176.366 455.632 175.513 458.874 174.511C467.907 171.714 477.749 167.72 478.807 164.755C478.848 164.644 478.88 164.53 478.904 164.414C478.994 164.004 478.987 163.578 478.883 163.171C478.534 161.66 477.176 160.023 477.017 156.282C476.838 152.104 476.864 147.172 476.706 141.883C476.706 141.295 476.691 140.637 476.626 140.043V139.826V139.488C476.477 133.587 476.168 127.383 475.809 121.232C475.583 117.368 475.319 113.542 475.016 109.874C474.228 100.409 473.168 91.9924 471.76 86.6586C469.465 77.9865 464.413 72.3295 459.791 68.183L456.458 65.3236C452.738 66.1376 448.341 65.5969 444.362 63.7132C440.057 61.6561 438.57 60.2044 437.818 60.7568C427.864 68.4474 420.712 91.9571 422.566 117.785Z" fill="#CCABD8"/>
<path d="M458.873 174.512C467.907 171.714 477.749 167.72 478.807 164.755C478.848 164.644 478.88 164.53 478.904 164.414C478.904 164 478.903 163.585 478.883 163.171C478.533 161.661 477.176 160.024 477.017 156.283C476.838 152.104 476.864 147.173 476.705 141.883C476.705 141.295 476.691 140.637 476.626 140.043V139.826V139.488L440.095 92.9683C440.095 92.9683 415.545 144.09 458.873 174.512Z" fill="#B78EC6"/>
<path d="M458.232 54.5269C458.232 54.5269 458.041 57.6449 456.994 62.9992C448.813 60.3544 445.104 52.9665 443.864 49.8338C443.996 49.3088 444.115 48.77 444.223 48.2175C445.372 47.9736 447.538 47.5122 449.856 47.0244L458.232 54.5269Z" fill="#FFDCDB"/>
<path d="M459.321 59.2496C459.321 59.2496 441.481 56.2727 443.508 45.1938C445.536 34.1149 444.593 26.2656 456.068 27.6967C467.544 29.1279 468.978 33.7622 469.201 37.6237C469.425 41.4852 464.015 59.7404 459.321 59.2496Z" fill="#FFF0F0"/>
<path d="M529.528 154.073L531.101 154.584L544.485 113.393L542.911 112.882L529.528 154.073Z" fill="#3A49CD"/>
<path d="M485.654 153.644L531.094 154.611L531.152 151.894L485.712 150.926L485.654 153.644Z" fill="#3A49CD"/>
<path d="M486.582 155.769C486.582 155.769 501.182 159.618 506.659 159.213C512.137 158.807 516.686 156.206 517.377 154.846C518.067 153.485 519.513 151.075 515.784 151.522C512.055 151.969 506.968 152.759 506.809 152.042C506.65 151.325 509.848 151.393 509.848 151.393C509.848 151.393 510.815 149.988 509.598 149.923C508.381 149.859 504.834 148.91 503.515 149.568C502.195 150.226 500.979 152.662 500.018 152.56C499.057 152.457 487.799 147.49 487.799 147.49L486.582 155.769Z" fill="#FFF0F0"/>
<path d="M434.872 78.3952C434.872 78.3952 436.597 137.255 449.524 143.928C455.901 147.229 484.704 156.303 493.349 157.852C493.349 157.852 495.674 156.356 495.935 149.253C495.935 149.253 466.343 134.507 462.643 127.86C457.139 117.971 470.845 90.8612 463.616 81.3427C456.386 71.8242 443.012 66.611 434.872 78.3952Z" fill="#CCABD8"/>
<path d="M443.853 49.834C443.853 49.834 443.65 46.0313 445.996 43.8537C445.996 43.8537 445.179 40.0334 446.686 39.4133C448.194 38.7932 448.508 41.9905 449.199 41.488C449.889 40.9855 452.969 38.5963 454.289 35.0787C455.608 31.5611 467.683 35.8222 469.091 36.454C470.498 37.0858 475.021 34.7643 475.903 32.8806C475.903 32.8806 473.387 30.8675 472.259 29.3541C471.13 27.8407 463.21 17.6698 452.152 20.5585C441.094 23.4473 439.586 28.7282 440.215 33.2508C440.844 37.7735 439.325 48.3146 443.853 49.834Z" fill="#120E59"/>
<path d="M108.54 72.4295L118.058 71.5214C118.43 71.4851 118.804 71.5695 119.124 71.7622C119.444 71.9548 119.694 72.2455 119.836 72.5911L127.024 89.8854C127.126 90.1382 127.167 90.4111 127.146 90.6826C127.124 90.9542 127.039 91.217 126.899 91.4505C126.759 91.6839 126.566 91.8817 126.337 92.0282C126.107 92.1748 125.846 92.2661 125.576 92.2951L115.672 93.2414C115.295 93.2748 114.916 93.1856 114.593 92.9871C114.271 92.7886 114.02 92.4913 113.88 92.1394L107.079 74.801C106.985 74.5494 106.95 74.2795 106.976 74.012C107.001 73.7446 107.088 73.4866 107.229 73.2578C107.37 73.0289 107.561 72.8354 107.789 72.6918C108.016 72.5482 108.273 72.4585 108.54 72.4295Z" fill="#0D0D38"/>
<path d="M229.214 300.979L224.165 303.659C224.165 303.659 196.856 274.704 190.291 246.918C189.115 241.955 188.648 237.062 189.148 232.422C189.148 232.422 188.751 231.164 188.057 228.936C188.025 228.839 187.996 228.739 187.963 228.643C187.669 227.667 187.296 226.518 186.891 225.219C185.571 221.019 183.761 215.274 181.698 208.733C176.943 193.681 166.073 159.73 161.421 145.609L194.808 133.528C194.808 133.528 198.601 142.177 204.05 165.681C204.89 168.749 205.731 172.146 206.515 175.837C207.397 180.025 208.237 184.603 208.928 189.546C210.225 198.872 210.894 208.274 210.929 217.69C210.95 221.895 210.847 226.256 210.597 230.755C210.415 234.056 210.891 238.452 211.823 243.454C216.037 266.302 229.214 300.979 229.214 300.979Z" fill="#164D9D"/>
<path d="M247.497 313.756H220.505C220.505 313.756 219.497 309.451 221.269 306.521C222.839 303.929 222.236 302.454 221.075 300.309C222.508 300.929 224.061 301.221 225.622 301.164C226.967 301.088 228.39 300.476 229.636 299.753C230.811 301.076 235.772 306.715 237.326 307.832C239.087 309.099 246.954 308.649 247.497 313.756Z" fill="#0D0D38"/>
<path d="M208.934 189.528L187.963 228.613C187.669 227.638 187.296 226.489 186.891 225.19C185.571 220.99 183.761 215.245 181.698 208.703C176.943 193.651 166.073 159.701 161.421 145.58L194.808 133.499C194.808 133.499 198.601 142.148 204.05 165.651C204.89 168.719 205.731 172.117 206.515 175.808C207.412 180.007 208.243 184.585 208.934 189.528Z" fill="#003E98"/>
<path d="M118.034 103.309C117.867 103.456 109.868 95.2748 105.595 90.7433L109.874 88.1396L133.239 102.807L118.034 103.309Z" fill="#FFF1F0"/>
<path d="M160.888 305.307C160.888 305.307 160.259 309.892 162.016 313.756H173.192C173.192 313.756 173.277 310.418 170.427 306.227C167.576 302.037 160.888 305.307 160.888 305.307Z" fill="#0D0D38"/>
<path d="M182.925 6.94936C183.078 6.23525 184.982 -1.42008 196.863 0.228534C196.863 0.228534 190.936 -0.0888462 189.487 2.28563C189.487 2.28563 193.989 -0.179946 197.033 1.40402C200.078 2.98798 200.986 8.94768 200.683 10.8079C200.381 12.6681 197.548 18.3368 195.417 18.4897C194.571 18.5149 193.729 18.37 192.94 18.0635C193.365 19.0764 193.73 20.1137 194.033 21.1698C197.063 31.6639 190.557 40.2714 186.751 38.5316C184.309 37.4179 182.825 41.6584 182.825 41.6584L161.469 17.2084C161.469 17.2084 173.888 -0.100603 182.925 6.94936Z" fill="#12123C"/>
<path d="M161.069 72.5147C163.855 74.4484 167.349 76.0412 171.734 77.055C188.17 80.8519 194.471 66.9577 196.836 57.4215C195.114 56.4704 193.212 55.8879 191.253 55.7112C190.077 55.5702 188.814 55.4791 187.779 55.4173C185.934 54.0038 183.183 48.2175 182.575 39.2339L181.802 39.4425L168.848 42.9866C168.848 42.9866 169.436 47.1008 169.73 50.9975C169.953 54.045 169.988 56.9543 169.412 57.6654C168.401 57.8859 167.796 58.0299 167.796 58.0299C165.096 62.6319 162.843 67.4824 161.069 72.5147Z" fill="#FFF1F0"/>
<path d="M168.862 42.9982C168.862 42.9982 169.45 47.1124 169.743 51.0091C177.09 50.2744 180.49 43.2862 181.816 39.4541L168.862 42.9982Z" fill="#FFDCDB"/>
<path d="M166.671 46.8657C166.671 46.8657 184.092 45.9047 183.325 35.0638C182.558 24.223 184.295 16.7998 173.14 16.9555C161.984 17.1113 160.118 21.3989 159.492 25.0781C158.866 28.7574 162.119 46.8363 166.671 46.8657Z" fill="#FFF1F0"/>
<path d="M159.577 19.0155C162.034 15.5625 164.117 16.1326 165.325 17.0319C174.462 11.1192 181.144 18.4101 181.144 18.4101C182.866 26.1037 188.785 30.165 188.785 30.165C188.785 30.165 185.755 32.3514 178.308 30.9966C176.034 30.5823 173.927 29.1394 172.093 27.335C174.248 30.3455 176.804 33.0476 179.69 35.3665C170.668 31.9576 166.289 20.0617 165.848 18.801C164.855 19.8325 162.91 22.0541 162.416 24.1318C161.749 26.953 161.764 32.6541 160.094 32.5894C160.103 32.5806 155.895 24.1935 159.577 19.0155Z" fill="#12123C"/>
<path d="M163.854 57.1661C163.854 57.1661 192.233 50.2748 204.573 60.4545L198.401 146.462L142.901 133.052C142.901 133.052 144.461 127.61 155.105 113.137C165.749 98.6635 161.121 77.4402 163.854 57.1661Z" fill="#FFF1F0"/>
<path d="M180.395 136.887C180.395 136.887 180.363 137.181 180.307 137.734C180.28 137.972 180.248 138.263 180.213 138.598C179.975 140.828 179.522 145.104 178.937 150.667C177.415 165.252 175.026 188.682 173.398 207.172C172.123 221.631 171.314 233.074 171.752 234.911C173.066 240.439 171.752 306.536 171.752 306.536C167.033 308.799 159.88 306.536 159.88 306.536C159.88 306.536 147.317 246.974 149.074 238.696C150.832 230.418 147.899 223.35 147.899 223.35C138.142 177.915 139.212 152.733 141.14 140.678C141.513 138.191 142.071 135.735 142.809 133.331C142.993 132.715 143.216 132.11 143.476 131.521C165.005 125.714 180.395 136.887 180.395 136.887Z" fill="#164D9D"/>
<path d="M198.405 146.459C192.227 149.04 185.629 150.466 178.936 150.667C173.554 150.822 168.174 150.312 162.917 149.148C152.276 146.832 144.171 142.547 141.147 140.678C141.52 138.191 142.078 135.736 142.817 133.332C149.367 128.665 165.568 133.129 178.801 138.078L180.212 138.612C190.347 142.474 198.405 146.459 198.405 146.459Z" fill="#003E98"/>
<path d="M208.396 84.9839C207.027 95.3311 201.546 107.994 199.58 114.809C199.58 114.809 202.851 138.471 199.727 144.966C199.371 145.709 198.934 146.227 198.396 146.459C186.823 151.502 141.752 146.606 139.848 132.059C139.157 126.769 157.016 108.194 158.068 105.94C158.5 105.005 158.949 101.984 156.866 95.719C153.898 104.867 148.417 115.435 142.904 117.236C136.844 119.217 112.885 101.367 112.885 101.367C112.885 101.367 112.747 99.1985 115.777 97.1472C117.725 95.8278 122.198 95.384 122.198 95.384L137.517 102.24C139.439 98.9487 144.229 76.1913 149.566 65.9176C153.589 58.1947 164.324 57.075 164.324 57.075C164.324 57.075 168.791 64.1632 179.606 63.1582C190.42 62.1531 192.389 55.5381 192.389 55.5381C192.389 55.5381 201.972 56.8105 204.926 59.1938C205.44 59.6141 210.195 71.4306 208.396 84.9839Z" fill="#CCABD8"/>
<path d="M201.014 114.997C201.014 114.997 202.862 138.471 199.738 144.966C191.307 140.734 180.316 131.601 183.66 117.324C188.518 96.5859 208.398 84.9985 208.398 84.9985C207.029 95.331 202.971 108.182 201.014 114.997Z" fill="#B78EC6"/>
<path d="M192.394 98.9048C192.394 98.9048 180.389 100.644 179.431 101.55C178.473 102.455 175.161 107.653 175.57 109.464C175.978 111.274 175.937 113.143 176.672 113.014C177.407 112.884 179.802 108.282 180.71 108.071C181.618 107.859 182.361 107.239 182.473 107.644C182.585 108.05 180.63 109.995 180.724 110.533C180.818 111.071 182.358 110.439 183.049 109.372C183.74 108.306 185.462 107.774 185.723 107.11C185.985 106.446 187.169 104.241 188.785 104.341C190.402 104.441 192.394 98.9048 192.394 98.9048Z" fill="#FFF1F0"/>
<path d="M204.072 98.4312L192.393 98.9043L188.396 104.35L204.28 104.882L204.072 98.4312Z" fill="#FFF1F0"/>
<path d="M192.392 55.5439C192.392 55.5439 206.31 57.1955 210.142 63.164C214.988 70.7106 232.109 95.7396 231.741 103.313C231.741 103.313 221.074 107.562 192.401 105.285C192.401 105.285 191.881 100.947 197.911 97.4675C197.911 97.4675 213.307 95.3605 215.003 93.8647L203.574 81.719L192.392 55.5439Z" fill="#CCABD8"/>
<path d="M106.462 72.6177L115.978 71.7096C116.349 71.6764 116.722 71.7621 117.042 71.9543C117.362 72.1466 117.613 72.4354 117.758 72.7793L124.944 90.0736C125.049 90.326 125.093 90.5995 125.074 90.8723C125.054 91.145 124.97 91.4092 124.829 91.6437C124.689 91.8782 124.495 92.0763 124.264 92.2221C124.032 92.368 123.77 92.4575 123.498 92.4833L113.591 93.4296C113.214 93.463 112.836 93.3738 112.513 93.1753C112.19 92.9768 111.939 92.6795 111.799 92.3276L105.013 74.9922C104.915 74.7414 104.876 74.4712 104.899 74.2028C104.923 73.9345 105.008 73.6751 105.148 73.4452C105.288 73.2152 105.48 73.0208 105.708 72.8773C105.936 72.7337 106.194 72.6449 106.462 72.6177Z" fill="#120E59"/>
<path d="M105.601 90.7435C105.601 90.7435 103.089 86.4089 103.277 85.3422C103.465 84.2754 106.065 79.3207 107.391 78.827C109.777 77.9454 113.13 77.4047 112.207 79.9173C111.599 81.5777 109.192 83.9815 109.613 84.7339C110.033 85.4862 109.868 88.1398 109.868 88.1398L105.601 90.7435Z" fill="#FFF1F0"/>
<path d="M484.535 277.427C480.955 299.158 457.551 312.997 433.545 312.997H386L389.719 186.332C389.719 186.332 435.084 172.537 446.464 185.66C456.447 197.158 483.518 242.67 484.943 269.608C485.09 272.221 484.954 274.841 484.535 277.427Z" fill="#A8C5EF"/>
<path d="M364.648 199.57C364.648 199.57 425.774 168.375 437.346 188.752C443.491 199.573 460.406 242.742 461.655 269.831C462.869 296.156 440.064 313.462 416.605 313.462H374.94L364.648 199.57Z" fill="#3662C1"/>
<path d="M376.14 216.873C375.625 219.518 370.676 221.986 363.333 224.161C362.04 224.552 360.675 224.928 359.239 225.286C334.245 231.672 289.977 235.234 285.757 233.353C279.926 230.749 244.139 103.6 244.139 103.6C244.139 103.6 278.301 102.316 305.431 101.69C314.712 101.478 323.169 101.343 329.155 101.361C329.844 101.361 330.531 101.409 331.213 101.505C333.529 101.779 335.671 102.875 337.249 104.593C341.619 109.295 342.7 118.558 346.744 128.805C350.743 138.941 355.651 151.586 360.306 164.138C361.505 167.37 362.689 170.603 363.832 173.777C364.155 174.676 364.476 175.568 364.793 176.454C371.676 195.702 376.974 212.579 376.14 216.873Z" fill="#BED2FA"/>
<path d="M484.908 277.692C481.496 299.548 459.194 313.465 436.319 313.465H414.097C428.917 303.421 442.317 272.473 484.908 277.692Z" fill="#8EB0E1"/>
<path d="M364.794 176.454C363.66 176.269 362.194 176.028 360.533 175.746C360.213 175.437 359.948 175.077 359.749 174.679C359.079 173.21 359.537 168.984 360.304 164.138C355.649 151.587 350.742 138.942 346.742 128.806C342.698 118.559 341.617 109.287 337.247 104.594C335.669 102.875 333.528 101.779 331.211 101.505C327.605 101.555 323.796 101.617 319.87 101.691C318.474 104.459 316.071 107.068 311.915 109.255C293.381 119.011 307.131 139.115 307.131 139.115C307.263 139.206 314.478 153.562 314.478 153.562C314.451 152.56 315.424 150.764 317.09 148.481C318.322 157.062 320.323 165.819 322.709 172.099C321.401 178.726 318.043 188.597 316.244 196.146C314.804 202.171 314.36 206.708 316.738 206.931C317.031 206.957 317.326 206.957 317.619 206.931C317.474 209.225 317.975 211.512 319.065 213.535C323.711 222.512 346.057 224.114 363.325 224.161C370.672 221.986 375.618 219.524 376.132 216.873C376.972 212.58 371.674 195.703 364.794 176.454Z" fill="#93B3F4"/>
<path d="M449.24 293.893C440.495 306.042 427.08 313.833 412.136 313.583L347.896 313.615H317.116L351.746 199.593C351.746 199.593 439.396 190.874 450.193 202.503C455.212 207.901 458.03 232.348 459.596 256.992C460.505 270.88 456.461 283.872 449.24 293.893Z" fill="#5076C9"/>
<path d="M449.242 293.894C440.497 306.042 427.081 313.833 412.138 313.583L347.898 313.615C355.456 307.268 379.23 289.262 404.688 290.106C423.984 290.77 439.306 290.491 449.242 293.894Z" fill="#3662C1"/>
<path d="M370.268 119.764C370.268 119.764 375.605 127.663 378.649 144.267C381.315 158.807 383.645 164.176 387.504 167.159C391.362 170.142 412.806 178.946 412.806 178.946L411.201 182.705C411.201 182.705 379.757 178.42 376.231 173.166C372.704 167.911 359.233 136.861 360.277 129.711C361.32 122.561 370.268 119.764 370.268 119.764Z" fill="#FFECEC"/>
<path d="M447.25 293.221C446.956 296.289 451.235 297.041 456.181 297.279C461.127 297.517 459.631 298.54 466.408 299.765C473.184 300.99 475.9 299.139 476.399 298.222C476.837 297.411 473.684 296.142 470.328 294.696C469.905 294.516 469.482 294.331 469.058 294.146C465.279 292.486 463.16 289.098 460.213 285.953C457.424 282.979 454.773 273.449 454.773 273.449L445.566 271.483C445.566 271.483 448.152 280.058 449.049 283.72C449.578 285.874 448.796 288.281 448.105 290.114C447.682 291.106 447.394 292.151 447.25 293.221Z" fill="#FDB3B1"/>
<path d="M456.176 297.279C461.122 297.526 459.626 298.54 466.403 299.765C473.18 300.99 475.895 299.139 476.394 298.222C476.832 297.411 473.679 296.142 470.323 294.696L470.27 294.754C466.922 295.72 463.375 295.762 460.005 294.875C455.524 293.658 451.189 290.981 448.101 290.114C447.681 291.104 447.396 292.146 447.254 293.212C446.969 296.277 451.236 297.035 456.176 297.279Z" fill="#060632"/>
<path d="M355.564 184.018C355.564 184.018 416.754 179.413 428.274 186.684C439.794 193.954 458.272 278.645 458.272 278.645C458.272 278.645 457.129 279.559 454.584 279.82C452.216 280.076 446.999 278.683 446.999 278.683C446.999 278.683 420.445 240.791 418.576 231.246C416.707 221.701 417.163 213.182 412.904 212.956C408.646 212.729 355.556 219.421 347.527 205.262C339.499 191.104 346.134 177.109 346.134 177.109L355.564 184.018Z" fill="#B78EC6"/>
<path d="M423.849 303.051C423.556 306.116 427.837 306.871 432.78 307.109C437.723 307.347 436.23 308.367 443.01 309.595C449.789 310.823 452.499 308.966 453.001 308.052C453.439 307.238 450.289 305.969 446.93 304.526C446.51 304.347 446.087 304.161 445.663 303.976C441.884 302.313 439.762 298.925 436.818 295.783C434.026 292.806 431.378 283.279 431.378 283.279L422.168 281.31C422.168 281.31 424.754 289.888 425.651 293.55C426.18 295.704 425.401 298.111 424.71 299.941C424.286 300.935 423.997 301.981 423.849 303.051Z" fill="#FDB3B1"/>
<path d="M432.766 307.109C437.711 307.356 436.216 308.367 442.995 309.595C449.775 310.823 452.484 308.966 452.987 308.052C453.425 307.238 450.274 305.969 446.915 304.526L446.865 304.582C443.518 305.549 439.971 305.592 436.601 304.705C432.116 303.486 427.784 300.808 424.696 299.941C424.276 300.933 423.991 301.975 423.847 303.042C423.556 306.116 427.823 306.856 432.766 307.109Z" fill="#060632"/>
<path d="M343.581 187.815C343.581 187.815 397.947 190.389 409.167 198.1C420.387 205.812 435.56 291.152 435.56 291.152C435.56 291.152 434.384 292.033 431.831 292.198C429.453 292.362 424.296 290.767 424.296 290.767C424.296 290.767 399.237 251.87 397.742 242.26C396.246 232.651 397.03 224.155 392.784 223.746C388.538 223.338 335.229 227.964 327.756 213.514C320.283 199.064 343.581 187.815 343.581 187.815Z" fill="#CCABD8"/>
<path d="M362.95 68.1977C360.537 66.6049 357.543 66.2493 355.433 66.2346C356.021 65.7115 357.09 65.5793 357.09 65.5793C355.8 65.2854 352.806 66.3962 352.806 66.3962C335.144 58.2031 330.516 84.7044 330.472 90.9315C330.427 97.1586 330.004 104.297 320.586 109.254C302.051 119.011 315.802 139.115 315.802 139.115C315.934 139.206 323.148 153.564 323.148 153.564C323.025 148.521 347.91 123.619 360.499 116.504C363.732 112.39 365.278 104.808 365.395 104.212C364.487 110.233 363.223 113.562 362.163 115.414C373.024 106.692 369.345 72.4176 362.95 68.1977Z" fill="#A83F3F"/>
<path d="M341.285 110.665C341.285 110.665 346.087 110.874 351.148 111.353C354.586 111.679 358.256 112.058 360.196 112.869C364.986 114.87 364.483 123.354 354.43 121.782C344.377 120.21 340.592 113.195 341.285 110.665Z" fill="#FDB3B1"/>
<path d="M359.782 116.851C359.84 116.88 361.213 124.148 354.633 123.857C350.31 123.666 340.991 118.438 341.814 114.747C342.205 112.983 345.47 108.426 346.128 97.9961L346.913 98.2047L360.137 101.752C360.137 101.752 359.549 105.951 359.276 109.924C359.05 113.266 359.041 116.442 359.782 116.851Z" fill="#FFF0F0"/>
<path d="M360.141 101.758C360.141 101.758 359.553 105.957 359.28 109.931C351.795 109.219 348.286 102.111 346.914 98.2109L360.141 101.758Z" fill="#FFDCDB"/>
<path d="M345.629 96.6593C345.629 96.6593 342.102 90.1942 341.515 84.8134C341.091 80.9931 343.96 67.0548 357.948 70.02C360.764 70.6015 363.414 71.8065 365.703 73.5464C368.642 75.821 372.756 80.5993 366.993 92.5216L365.433 96.577L345.629 96.6593Z" fill="#A83F3F"/>
<path d="M362.393 105.687C362.393 105.687 344.628 104.806 345.348 93.7443C346.068 82.683 344.267 75.1306 355.634 75.2305C367.001 75.3304 368.932 79.6944 369.587 83.4589C370.242 87.2233 367.033 105.634 362.393 105.687Z" fill="#FFF0F0"/>
<path d="M363.747 75.5004C363.747 75.5004 358.025 88.1368 350.44 89.5621C342.856 90.9874 339.755 88.7686 339.755 88.7686C339.755 88.7686 345.78 84.6074 347.493 76.7552C347.493 76.7552 360.494 69.0822 363.747 75.5004Z" fill="#A83F3F"/>
<path d="M362.475 76.4612C362.475 76.4612 365.91 79.5998 366.606 82.4738C367.303 85.3479 367.315 91.1665 369.016 91.0842C369.016 91.0842 373.265 82.512 369.483 77.2517C365.475 71.6829 362.475 76.4612 362.475 76.4612Z" fill="#A83F3F"/>
<path d="M380.167 184.947C378.73 186.666 374.243 187.195 369.444 187.982C365.671 188.605 361.703 189.387 358.885 191.045C352.482 194.803 331.555 207.501 325.428 206.931C323.048 206.708 323.494 202.17 324.934 196.149C327.2 186.639 331.946 173.433 331.946 167.691C331.946 164.555 332.989 157.138 334.382 148.66C334.494 147.975 334.609 147.287 334.726 146.602C337.48 130.116 341.294 110.677 341.294 110.677C341.294 110.677 345.549 119.954 353.839 119.954C362.13 119.954 360.205 112.875 360.205 112.875C360.205 112.875 367.769 113.757 369.556 115.69C371.342 117.624 375.877 125.937 376.776 128.206C376.776 128.206 376.958 131.092 369.808 132.467C369.808 132.467 371.551 140.308 371.757 145.533C371.91 149.391 369.112 161.472 368.321 168.987C368.028 171.649 367.998 173.738 368.433 174.685C368.986 175.898 370.784 177.106 372.809 178.293C376.844 180.639 381.875 182.904 380.167 184.947Z" fill="#164D9D"/>
<path d="M372.809 178.287C377.399 186.11 360.363 188.464 357.545 190.119C351.142 193.88 331.558 207.51 325.428 206.931C323.048 206.708 323.494 202.17 324.934 196.149C327.2 186.639 331.946 173.433 331.946 167.691C331.946 164.555 332.989 157.138 334.382 148.659L341.761 141.571C341.761 141.571 349.672 162.013 357.21 165.375C360.795 166.916 364.515 168.123 368.321 168.981C368.028 171.643 367.998 173.732 368.433 174.679C368.986 175.892 370.775 177.1 372.809 178.287Z" fill="#003E98"/>
<path d="M339.026 116.784C339.026 116.784 332.717 112.963 326.613 120.222C320.509 127.48 330.95 179.463 339.993 182.134C350.034 185.1 379.048 181.658 379.048 181.658L378.49 177.124C378.49 177.124 347.604 171.202 346.32 169.554C345.036 167.905 342.235 117.624 339.026 116.784Z" fill="#FFF0F0"/>
<path d="M341.286 110.665C341.286 110.665 328.326 111.841 324.562 116.096C320.797 120.351 319.698 131.912 319.698 131.912C319.698 131.912 331.112 141.125 344.862 137.548L341.286 110.665Z" fill="#164D9D"/>
<path d="M399.196 184.089H382.078V186.111H399.196V184.089Z" fill="#EB6453"/>
<path d="M395.546 185.834C395.714 185.164 411.283 160.717 411.283 160.717H445.928L428.551 185.176L395.546 185.834Z" fill="#EB6453"/>
<path d="M397.005 186.111C397.172 185.441 412.792 160.717 412.792 160.717H445.928L429.395 186.111H397.005Z" fill="#C22511"/>
<path d="M426.214 173.495C426.028 173.995 425.701 174.43 425.273 174.748C424.845 175.067 424.334 175.255 423.802 175.29C422.811 175.29 422.285 174.485 422.626 173.495C422.813 172.995 423.14 172.56 423.568 172.242C423.996 171.924 424.507 171.736 425.039 171.702C426.029 171.702 426.555 172.504 426.214 173.495Z" fill="#CCABD8"/>
<path d="M375.963 176.857C375.963 176.857 386.019 174.908 387.154 175.387C388.288 175.866 394.615 181.559 393.965 182.687C393.316 183.816 390.733 184.632 387.794 183.66C384.855 182.687 378.549 182.19 377.415 180.739C376.28 179.287 375.963 176.857 375.963 176.857Z" fill="#FFF0F0"/>
<path d="M396.007 278.836C392.331 300.033 372.171 313.465 351.506 313.465H309.841L313.1 186.075C313.1 186.075 352.852 172.202 362.838 185.4C371.587 196.963 395.308 242.737 396.557 269.829C396.703 272.842 396.519 275.862 396.007 278.836Z" fill="#A8C5EF"/>
<path d="M396.006 278.836C392.33 300.033 372.171 313.465 351.506 313.465H318.163C333.771 302.886 354.785 273.649 396.006 278.836Z" fill="#8EB0E1"/>
<path d="M331.415 313.371L330.481 313.433C329.823 313.468 329.161 313.489 328.5 313.501H327.839H286.171V313.48L283.764 313.509C279.474 313.562 274.992 313.612 270.834 313.647L268.777 313.665H268.028C263.913 313.692 260.29 313.703 257.698 313.686C254.249 313.68 250.804 313.415 247.395 312.892C243.44 312.301 239.58 311.196 235.91 309.607C234.661 309.056 233.442 308.437 232.261 307.752C230.678 306.842 229.167 305.813 227.741 304.673C224.044 301.734 220.847 297.984 218.128 293.385C216.116 289.93 214.443 286.289 213.132 282.512C211.325 277.413 209.871 271.609 208.751 265.047C207.149 255.681 206.235 244.77 205.959 232.163C205.847 227.085 205.839 221.727 205.933 216.088C206.082 207.076 206.484 197.318 207.14 186.813C208.054 172.043 209.456 155.751 211.305 137.816C212.991 121.435 214.937 109.986 217.77 107.377C221.943 103.53 230.65 101.981 236.707 101.361C240.468 100.976 243.198 100.947 243.198 100.947C250.598 100.947 257.175 106.26 259.549 114.153C264.384 130.228 273.017 158.966 282.001 189.026C282.048 189.176 282.092 189.32 282.139 189.478L283.688 194.668C283.767 194.932 283.847 195.197 283.929 195.461L285.501 194.759L285.557 194.736C287.711 193.781 290.147 192.734 292.777 191.668C294.149 191.115 295.56 190.559 297.012 189.998C301.126 188.42 305.564 186.863 310.063 185.523C312.058 184.935 314.068 184.368 316.067 183.877C318.632 183.239 321.177 182.702 323.657 182.302L323.875 182.267L324.756 182.134C335.456 180.562 344.74 181.652 348.58 188.429C354.725 199.282 371.64 242.575 372.889 269.746C374.044 294.807 353.559 311.711 331.415 313.371Z" fill="#5076C9"/>
<path d="M264.586 200.551C264.586 200.551 243.202 113.43 241.665 106.107C240.977 102.842 238.855 101.664 236.722 101.361C240.48 100.976 243.216 100.947 243.216 100.947C250.613 100.947 257.19 106.236 259.564 114.115C264.745 131.283 274.281 162.939 283.956 195.185C283.441 195.185 264.586 200.551 264.586 200.551Z" fill="#A8C5EF"/>
<path d="M585.292 314H0.708251C0.317092 314 0 314.408 0 314.912V315.088C0 315.592 0.317092 316 0.708251 316H585.292C585.683 316 586 315.592 586 315.088V314.912C586 314.408 585.683 314 585.292 314Z" fill="#4E92F9"/>
</svg>
