<svg width="82" height="81" viewBox="0 0 82 81" fill="none" xmlns="http://www.w3.org/2000/svg">
<g id="cog-wheel-silhouette 1" clip-path="url(#clip0_213_251)">
<g id="Group">
<g id="Vector" filter="url(#filter0_b_213_251)">
<path d="M81.5739 33.4422C81.288 33.0732 80.9149 32.8537 80.4529 32.784L70.6829 31.3109C70.1492 29.6268 69.4196 27.9083 68.4944 26.1537C69.1342 25.2768 70.0948 24.0403 71.3759 22.4436C72.6569 20.8472 73.5642 19.6812 74.0986 18.9442C74.3834 18.5582 74.5248 18.1551 74.5248 17.7337C74.5248 17.2429 74.4013 16.8573 74.1512 16.5762C72.8707 14.7869 69.9342 11.8052 65.3429 7.63019C64.9175 7.27944 64.4713 7.10415 64.0093 7.10415C63.475 7.10415 63.0481 7.26174 62.7276 7.57729L55.1473 13.208C53.6877 12.4709 52.0861 11.8219 50.343 11.2607L48.8482 1.57868C48.8125 1.12268 48.6075 0.74538 48.2339 0.447154C47.8598 0.14856 47.4247 0 46.9256 0H35.0742C34.0421 0 33.4012 0.490837 33.1524 1.47325C32.6896 3.22666 32.1733 6.48927 31.6041 11.2605C29.9311 11.7877 28.3118 12.4542 26.7459 13.2609L19.3788 7.63019C18.9162 7.27944 18.4536 7.10415 17.9909 7.10415C17.208 7.10415 15.5266 8.35825 12.9462 10.8666C10.3657 13.3756 8.61383 15.2609 7.68767 16.5233C7.36717 16.9793 7.20748 17.383 7.20748 17.7337C7.20748 18.1551 7.38512 18.5761 7.74096 18.9965C10.1253 21.8387 12.0297 24.2586 13.4535 26.2592C12.5636 27.8727 11.8697 29.4867 11.3719 31.1003L1.44187 32.5733C1.0505 32.6437 0.712614 32.8721 0.427643 33.2581C0.142111 33.6437 0 34.0475 0 34.4677V46.1503C0 46.6071 0.142111 47.0183 0.427082 47.3867C0.712053 47.755 1.08547 47.9756 1.54827 48.0451L11.3184 49.4662C11.8164 51.185 12.5458 52.9209 13.5069 54.6745C12.8667 55.552 11.9058 56.7882 10.6245 58.3846C9.34346 59.9817 8.43506 61.1473 7.90177 61.8841C7.61661 62.2715 7.4745 62.6739 7.4745 63.095C7.4745 63.5505 7.59904 63.9536 7.84792 64.3043C9.23594 66.1998 12.172 69.1467 16.6568 73.1459C17.0485 73.5318 17.4935 73.7242 17.9913 73.7242C18.5255 73.7242 18.9704 73.5672 19.326 73.2518L26.854 67.6204C28.314 68.3571 29.9152 69.0063 31.6591 69.5683L33.1537 79.2503C33.1898 79.7057 33.3943 80.083 33.7676 80.382C34.141 80.6809 34.5774 80.8286 35.0755 80.8286H46.9269C47.9609 80.8286 48.6008 80.3379 48.8504 79.3551C49.3125 77.6015 49.8282 74.3393 50.3976 69.5683C52.0704 69.0415 53.6899 68.3746 55.2557 67.5675L62.6235 73.2518C63.1214 73.5674 63.5848 73.7242 64.0109 73.7242C64.7937 73.7242 66.4663 72.4797 69.0284 69.9881C71.5918 67.4978 73.3535 65.6032 74.3135 64.3043C74.6334 63.9538 74.7938 63.5505 74.7938 63.095C74.7938 62.6383 74.6168 62.1989 74.2596 61.7792C71.6982 58.6911 69.7938 56.2714 68.5479 54.5167C69.2595 53.2185 69.9538 51.6227 70.6302 49.7281L80.5063 48.2558C80.9325 48.1852 81.2896 47.9568 81.5737 47.5709C81.8585 47.1842 81.9998 46.7805 81.9998 46.3597V34.6784C82.0008 34.2224 81.8594 33.8108 81.5739 33.4422Z" fill="#C46DE3" fill-opacity="0.14"/>
<path d="M81.9998 34.6784V46.3597C81.9998 46.7805 81.8585 47.1842 81.5737 47.5709L81.9998 34.6784ZM81.9998 34.6784C82.0008 34.2224 81.8594 33.8108 81.5739 33.4422L81.9998 34.6784ZM70.1245 31.4879L70.2348 31.8357L70.5956 31.8901L80.3655 33.3632C80.6782 33.4103 80.9169 33.5506 81.1109 33.8009C81.3182 34.0686 81.4148 34.354 81.4141 34.6772V34.6784V46.3597C81.4141 46.6392 81.3231 46.9235 81.1021 47.2236L81.1019 47.2237C80.8993 47.499 80.6725 47.6335 80.4148 47.6773C80.4134 47.6775 80.412 47.6777 80.4106 47.678L70.5438 49.1488L70.1966 49.2006L70.0785 49.5312C69.4092 51.4061 68.7269 52.9717 68.0343 54.2351L67.8579 54.5567L68.0703 54.8558C69.3291 56.6287 71.2447 59.0618 73.8088 62.1531L73.8136 62.1588C74.0988 62.494 74.2081 62.8032 74.2081 63.095C74.2081 63.3974 74.1071 63.6616 73.8808 63.9095L73.8604 63.9318L73.8424 63.9562C72.9131 65.2136 71.1814 67.0799 68.6203 69.568L68.6201 69.5682C67.3465 70.8068 66.3089 71.7205 65.5026 72.3207C65.0991 72.6211 64.7662 72.8335 64.5 72.9684C64.2218 73.1095 64.0692 73.1385 64.0109 73.1385C63.7345 73.1385 63.3867 73.038 62.9591 72.771L55.6135 67.1037L55.3185 66.8762L54.9874 67.0469C53.4511 67.8388 51.8625 68.4929 50.2217 69.0096L49.8608 69.1232L49.816 69.4988C49.2463 74.2729 48.7343 77.4969 48.284 79.2059L48.2828 79.2109C48.1819 79.6082 48.018 79.8488 47.8266 79.9955C47.634 80.143 47.3517 80.2429 46.9269 80.2429H35.0755C34.7027 80.2429 34.3973 80.1358 34.1336 79.9247C33.8801 79.7216 33.7602 79.4901 33.7376 79.204L33.7358 79.1824L33.7325 79.1609L32.2379 69.4789L32.1828 69.1217L31.8387 69.0108C30.1204 68.457 28.5478 67.819 27.1179 67.0975L26.7938 66.9339L26.5032 67.1514L18.9752 72.7828L18.9557 72.7974L18.9374 72.8136C18.7027 73.0217 18.4019 73.1385 17.9913 73.1385C17.6637 73.1385 17.3622 73.0186 17.0678 72.7286L17.0575 72.7184L17.0466 72.7087C12.5626 68.7103 9.67143 65.8018 8.32327 63.9621C8.15041 63.7171 8.06022 63.435 8.06022 63.095C8.06022 62.8163 8.15129 62.5331 8.37351 62.2313L8.37623 62.2275C8.90017 61.5037 9.80044 60.3481 11.0814 58.7511C12.3641 57.1529 13.3318 55.9083 13.9801 55.0197L14.1994 54.7192L14.0206 54.393C13.0777 52.6726 12.3657 50.9763 11.881 49.3032L11.776 48.9409L11.4027 48.8866L1.63524 47.4659C1.63465 47.4658 1.63407 47.4657 1.63348 47.4656C1.3216 47.4184 1.0832 47.2775 0.890391 47.0284C0.683015 46.7603 0.585714 46.4745 0.585714 46.1503V34.4677C0.585714 34.1895 0.677037 33.9055 0.898353 33.6066L0.89884 33.606C1.11205 33.3172 1.32584 33.1914 1.53791 33.1512L11.4579 31.6796L11.8228 31.6255L11.9316 31.2729C12.4166 29.7009 13.0941 28.1236 13.9664 26.542L14.1442 26.2196L13.9307 25.9196C12.4946 23.9016 10.5794 21.4686 8.18969 18.6201L8.18804 18.6181C7.89399 18.2707 7.7932 17.9789 7.7932 17.7337C7.7932 17.5559 7.8778 17.2727 8.16353 16.8649C9.05928 15.6453 10.7788 13.7908 13.3544 11.2866C14.6373 10.0395 15.6818 9.11911 16.4928 8.51425C16.8987 8.21153 17.2335 7.99741 17.5009 7.8613C17.7807 7.71894 17.9334 7.68986 17.9909 7.68986C18.296 7.68986 18.6372 7.80323 19.0239 8.09614C19.0242 8.0964 19.0246 8.09666 19.0249 8.09692L26.3903 13.7263L26.6847 13.9513L27.0142 13.7816C28.5505 12.9901 30.139 12.3363 31.7801 11.8191L32.1409 11.7055L32.1857 11.3299C32.7552 6.55567 33.2677 3.33137 33.7187 1.62273L33.7187 1.62273L33.7201 1.61709C33.8206 1.2204 33.9844 0.97981 34.1759 0.833102C34.3684 0.685502 34.6506 0.585714 35.0742 0.585714H46.9256C47.2982 0.585714 47.603 0.693 47.8685 0.904913C48.122 1.10721 48.2419 1.33827 48.2643 1.62441L48.266 1.64633L48.2693 1.66805L49.7641 11.3501L49.8193 11.7074L50.1635 11.8182C51.881 12.3712 53.4539 13.009 54.8833 13.7308L55.2062 13.8939L55.4966 13.6782L63.0769 8.04748L63.1096 8.02322L63.1386 7.99466C63.3293 7.80691 63.5979 7.68986 64.0093 7.68986C64.3079 7.68986 64.6228 7.79874 64.9598 8.07355C69.5506 12.2485 72.437 15.1874 73.6748 16.9171L73.693 16.9424L73.7136 16.9656C73.8414 17.1092 73.939 17.34 73.939 17.7337C73.939 18.0137 73.848 18.2973 73.6273 18.5964L73.6244 18.6003C73.0991 19.3249 72.1996 20.4812 70.9191 22.077L70.919 22.0771C69.6364 23.6758 68.6691 24.9205 68.0212 25.8085L67.8058 26.1037L67.9763 26.4269C68.8872 28.1544 69.6026 29.8408 70.1245 31.4879Z" stroke="url(#paint0_linear_213_251)" stroke-opacity="0.2" stroke-width="1.17143"/>
</g>
</g>
<g id="Group 26">
<ellipse id="Ellipse 5" cx="33.2731" cy="31.5542" rx="5.51923" ry="5.44038" fill="url(#paint1_linear_213_251)"/>
<ellipse id="Ellipse 32" cx="49.5158" cy="46.4765" rx="5.51923" ry="5.44039" fill="url(#paint2_linear_213_251)"/>
<rect id="Rectangle 86" width="5.63135" height="31.8874" rx="2.81567" transform="matrix(0.712175 0.702001 -0.712175 0.702001 51.1929 26.1423)" fill="url(#paint3_linear_213_251)"/>
</g>
</g>
<defs>
<filter id="filter0_b_213_251" x="-18.7429" y="-18.7429" width="119.486" height="118.314" filterUnits="userSpaceOnUse" color-interpolation-filters="sRGB">
<feFlood flood-opacity="0" result="BackgroundImageFix"/>
<feGaussianBlur in="BackgroundImageFix" stdDeviation="9.37143"/>
<feComposite in2="SourceAlpha" operator="in" result="effect1_backgroundBlur_213_251"/>
<feBlend mode="normal" in="SourceGraphic" in2="effect1_backgroundBlur_213_251" result="shape"/>
</filter>
<linearGradient id="paint0_linear_213_251" x1="-6.49266" y1="-1.89627" x2="81.3148" y2="79.4793" gradientUnits="userSpaceOnUse">
<stop stop-color="#C46DE3"/>
<stop offset="1" stop-color="white"/>
</linearGradient>
<linearGradient id="paint1_linear_213_251" x1="33.2731" y1="26.1138" x2="33.2731" y2="36.9945" gradientUnits="userSpaceOnUse">
<stop stop-color="#DCA4F3"/>
<stop offset="1" stop-color="#C06DE3"/>
</linearGradient>
<linearGradient id="paint2_linear_213_251" x1="49.5158" y1="41.0361" x2="49.5158" y2="51.9169" gradientUnits="userSpaceOnUse">
<stop stop-color="#DCA4F3"/>
<stop offset="1" stop-color="#C06DE3"/>
</linearGradient>
<linearGradient id="paint3_linear_213_251" x1="2.81567" y1="0" x2="2.81567" y2="31.8874" gradientUnits="userSpaceOnUse">
<stop stop-color="#DCA4F3"/>
<stop offset="1" stop-color="#C06DE3"/>
</linearGradient>
<clipPath id="clip0_213_251">
<rect width="82" height="80.8286" fill="white"/>
</clipPath>
</defs>
</svg>
